<svg width="1266" height="381" viewBox="0 0 1266 381" fill="none" xmlns="http://www.w3.org/2000/svg">
<g filter="url(#filter0_d_509_55700)">
<path d="M332 7L401 6.99999L405 10L332 10L332 7Z" fill="#EF5D61"/>
</g>
<g filter="url(#filter1_d_509_55700)">
<path d="M310 350L379 350L383 353L310 353L310 350Z" fill="#EF5D61"/>
</g>
<g filter="url(#filter2_d_509_55700)">
<path d="M7 197L7 128L10 124L10 197H7Z" fill="#EF5D61"/>
</g>
<g filter="url(#filter3_d_509_55700)">
<path d="M31 174L31 243L28 247L28 174H31Z" fill="#EF5D61"/>
</g>
<g filter="url(#filter4_d_509_55700)">
<path d="M460 374L529 374L533 371L460 371L460 374Z" fill="#EF5D61"/>
</g>
<g filter="url(#filter5_ii_509_55700)">
<path fill-rule="evenodd" clip-rule="evenodd" d="M4 13.5L13.5 2H146L147.938 6H169.344L171.5 2H356L362.5 10H418L424 18V44H414.5H397L386.5 28.6824H219.5L214.5 36H104L99.625 28.6824H34V85.5785L28 92.4327V163.611L34 170.465V199.463L28 206.581V278.154L34 285.47V352.318H99.625L104 345H344.5L349.5 352.318H516.5L527 337H544.5H554V363L548 371H492.5L486 379H301.5L299.344 375H277.938L276 379H13.5L4 367.5V355V352.318V285.47L10 278.154V206.581L4 199.463V170.465L10 163.611V92.4327L4 85.5785V28.6824V26V13.5Z" fill="url(#paint0_linear_509_55700)"/>
</g>
<path d="M132.5 378.5L138.5 372.5H235L241 378.5" stroke="#20343F" stroke-linecap="round"/>
<path d="M241 29L247 23H343.5L349.5 29" stroke="#20343F" stroke-linecap="round"/>
<rect x="109" y="27" width="4" height="4" fill="#20343F"/>
<rect x="115" y="27" width="4" height="4" fill="#20343F"/>
<rect x="121" y="27" width="4" height="4" fill="#20343F"/>
<rect x="10" y="307" width="4" height="4" transform="rotate(-90 10 307)" fill="#20343F"/>
<rect x="10" y="301" width="4" height="4" transform="rotate(-90 10 301)" fill="#20343F"/>
<rect x="10" y="295" width="4" height="4" transform="rotate(-90 10 295)" fill="#20343F"/>
<rect x="458" y="369" width="4" height="4" fill="#20343F"/>
<rect x="464" y="369" width="4" height="4" fill="#20343F"/>
<rect x="470" y="369" width="4" height="4" fill="#20343F"/>
<rect x="436" y="369" width="4" height="4" fill="#20343F"/>
<rect x="442" y="369" width="4" height="4" fill="#20343F"/>
<rect x="448" y="369" width="4" height="4" fill="#20343F"/>
<path d="M4 183H15L20.5 188.5H34" stroke="#20343F"/>
<g filter="url(#filter6_d_509_55700)">
<path d="M934 7L865 6.99999L861 10L934 10L934 7Z" fill="#EF5D61"/>
</g>
<g filter="url(#filter7_d_509_55700)">
<path d="M956 350L887 350L883 353L956 353L956 350Z" fill="#EF5D61"/>
</g>
<g filter="url(#filter8_d_509_55700)">
<path d="M1259 197V128L1256 124L1256 197H1259Z" fill="#EF5D61"/>
</g>
<g filter="url(#filter9_d_509_55700)">
<path d="M1235 174V243L1238 247L1238 174H1235Z" fill="#EF5D61"/>
</g>
<g filter="url(#filter10_d_509_55700)">
<path d="M806 374L737 374L733 371L806 371L806 374Z" fill="#EF5D61"/>
</g>
<g filter="url(#filter11_ii_509_55700)">
<path fill-rule="evenodd" clip-rule="evenodd" d="M1262 13.5L1252.5 2H1120L1118.06 6H1096.66L1094.5 2H910L903.5 10H848L842 18V44H851.5H869L879.5 28.6824H1046.5L1051.5 36H1162L1166.38 28.6824H1232V85.5785L1238 92.4327V163.611L1232 170.465V199.463L1238 206.581V278.154L1232 285.47V352.318H1166.38L1162 345H921.5L916.5 352.318H749.5L739 337H721.5H712V363L718 371H773.5L780 379H964.5L966.656 375H988.062L990 379H1252.5L1262 367.5V355V352.318V285.47L1256 278.154V206.581L1262 199.463V170.465L1256 163.611V92.4327L1262 85.5785V28.6824V26V13.5Z" fill="url(#paint1_linear_509_55700)"/>
</g>
<path d="M1133.5 378.5L1127.5 372.5H1031L1025 378.5" stroke="#20343F" stroke-linecap="round"/>
<path d="M1025 29L1019 23H922.5L916.5 29" stroke="#20343F" stroke-linecap="round"/>
<rect width="4" height="4" transform="matrix(-1 0 0 1 1157 27)" fill="#20343F"/>
<rect width="4" height="4" transform="matrix(-1 0 0 1 1151 27)" fill="#20343F"/>
<rect width="4" height="4" transform="matrix(-1 0 0 1 1145 27)" fill="#20343F"/>
<rect width="4" height="4" transform="matrix(0 -1 -1 0 1256 307)" fill="#20343F"/>
<rect width="4" height="4" transform="matrix(0 -1 -1 0 1256 301)" fill="#20343F"/>
<rect width="4" height="4" transform="matrix(0 -1 -1 0 1256 295)" fill="#20343F"/>
<rect width="4" height="4" transform="matrix(-1 0 0 1 808 369)" fill="#20343F"/>
<rect width="4" height="4" transform="matrix(-1 0 0 1 802 369)" fill="#20343F"/>
<rect width="4" height="4" transform="matrix(-1 0 0 1 796 369)" fill="#20343F"/>
<rect width="4" height="4" transform="matrix(-1 0 0 1 830 369)" fill="#20343F"/>
<rect width="4" height="4" transform="matrix(-1 0 0 1 824 369)" fill="#20343F"/>
<rect width="4" height="4" transform="matrix(-1 0 0 1 818 369)" fill="#20343F"/>
<path d="M1262 183H1251L1245.5 188.5H1232" stroke="#20343F"/>
<defs>
<filter id="filter0_d_509_55700" x="325" y="0" width="87" height="17" filterUnits="userSpaceOnUse" color-interpolation-filters="sRGB">
<feFlood flood-opacity="0" result="BackgroundImageFix"/>
<feColorMatrix in="SourceAlpha" type="matrix" values="0 0 0 0 0 0 0 0 0 0 0 0 0 0 0 0 0 0 127 0" result="hardAlpha"/>
<feOffset/>
<feGaussianBlur stdDeviation="3.5"/>
<feComposite in2="hardAlpha" operator="out"/>
<feColorMatrix type="matrix" values="0 0 0 0 0.937255 0 0 0 0 0.365529 0 0 0 0 0.382345 0 0 0 1 0"/>
<feBlend mode="normal" in2="BackgroundImageFix" result="effect1_dropShadow_509_55700"/>
<feBlend mode="normal" in="SourceGraphic" in2="effect1_dropShadow_509_55700" result="shape"/>
</filter>
<filter id="filter1_d_509_55700" x="303" y="343" width="87" height="17" filterUnits="userSpaceOnUse" color-interpolation-filters="sRGB">
<feFlood flood-opacity="0" result="BackgroundImageFix"/>
<feColorMatrix in="SourceAlpha" type="matrix" values="0 0 0 0 0 0 0 0 0 0 0 0 0 0 0 0 0 0 127 0" result="hardAlpha"/>
<feOffset/>
<feGaussianBlur stdDeviation="3.5"/>
<feComposite in2="hardAlpha" operator="out"/>
<feColorMatrix type="matrix" values="0 0 0 0 0.937255 0 0 0 0 0.365529 0 0 0 0 0.382345 0 0 0 1 0"/>
<feBlend mode="normal" in2="BackgroundImageFix" result="effect1_dropShadow_509_55700"/>
<feBlend mode="normal" in="SourceGraphic" in2="effect1_dropShadow_509_55700" result="shape"/>
</filter>
<filter id="filter2_d_509_55700" x="0" y="117" width="17" height="87" filterUnits="userSpaceOnUse" color-interpolation-filters="sRGB">
<feFlood flood-opacity="0" result="BackgroundImageFix"/>
<feColorMatrix in="SourceAlpha" type="matrix" values="0 0 0 0 0 0 0 0 0 0 0 0 0 0 0 0 0 0 127 0" result="hardAlpha"/>
<feOffset/>
<feGaussianBlur stdDeviation="3.5"/>
<feComposite in2="hardAlpha" operator="out"/>
<feColorMatrix type="matrix" values="0 0 0 0 0.937255 0 0 0 0 0.365529 0 0 0 0 0.382345 0 0 0 1 0"/>
<feBlend mode="normal" in2="BackgroundImageFix" result="effect1_dropShadow_509_55700"/>
<feBlend mode="normal" in="SourceGraphic" in2="effect1_dropShadow_509_55700" result="shape"/>
</filter>
<filter id="filter3_d_509_55700" x="21" y="167" width="17" height="87" filterUnits="userSpaceOnUse" color-interpolation-filters="sRGB">
<feFlood flood-opacity="0" result="BackgroundImageFix"/>
<feColorMatrix in="SourceAlpha" type="matrix" values="0 0 0 0 0 0 0 0 0 0 0 0 0 0 0 0 0 0 127 0" result="hardAlpha"/>
<feOffset/>
<feGaussianBlur stdDeviation="3.5"/>
<feComposite in2="hardAlpha" operator="out"/>
<feColorMatrix type="matrix" values="0 0 0 0 0.937255 0 0 0 0 0.365529 0 0 0 0 0.382345 0 0 0 1 0"/>
<feBlend mode="normal" in2="BackgroundImageFix" result="effect1_dropShadow_509_55700"/>
<feBlend mode="normal" in="SourceGraphic" in2="effect1_dropShadow_509_55700" result="shape"/>
</filter>
<filter id="filter4_d_509_55700" x="453" y="364" width="87" height="17" filterUnits="userSpaceOnUse" color-interpolation-filters="sRGB">
<feFlood flood-opacity="0" result="BackgroundImageFix"/>
<feColorMatrix in="SourceAlpha" type="matrix" values="0 0 0 0 0 0 0 0 0 0 0 0 0 0 0 0 0 0 127 0" result="hardAlpha"/>
<feOffset/>
<feGaussianBlur stdDeviation="3.5"/>
<feComposite in2="hardAlpha" operator="out"/>
<feColorMatrix type="matrix" values="0 0 0 0 0.937255 0 0 0 0 0.365529 0 0 0 0 0.382345 0 0 0 1 0"/>
<feBlend mode="normal" in2="BackgroundImageFix" result="effect1_dropShadow_509_55700"/>
<feBlend mode="normal" in="SourceGraphic" in2="effect1_dropShadow_509_55700" result="shape"/>
</filter>
<filter id="filter5_ii_509_55700" x="3" y="1" width="552" height="379" filterUnits="userSpaceOnUse" color-interpolation-filters="sRGB">
<feFlood flood-opacity="0" result="BackgroundImageFix"/>
<feBlend mode="normal" in="SourceGraphic" in2="BackgroundImageFix" result="shape"/>
<feColorMatrix in="SourceAlpha" type="matrix" values="0 0 0 0 0 0 0 0 0 0 0 0 0 0 0 0 0 0 127 0" result="hardAlpha"/>
<feOffset dx="1" dy="1"/>
<feGaussianBlur stdDeviation="0.5"/>
<feComposite in2="hardAlpha" operator="arithmetic" k2="-1" k3="1"/>
<feColorMatrix type="matrix" values="0 0 0 0 1 0 0 0 0 1 0 0 0 0 1 0 0 0 0.3 0"/>
<feBlend mode="normal" in2="shape" result="effect1_innerShadow_509_55700"/>
<feColorMatrix in="SourceAlpha" type="matrix" values="0 0 0 0 0 0 0 0 0 0 0 0 0 0 0 0 0 0 127 0" result="hardAlpha"/>
<feOffset dx="-1" dy="-1"/>
<feGaussianBlur stdDeviation="0.5"/>
<feComposite in2="hardAlpha" operator="arithmetic" k2="-1" k3="1"/>
<feColorMatrix type="matrix" values="0 0 0 0 0 0 0 0 0 0 0 0 0 0 0 0 0 0 0.3 0"/>
<feBlend mode="normal" in2="effect1_innerShadow_509_55700" result="effect2_innerShadow_509_55700"/>
</filter>
<filter id="filter6_d_509_55700" x="854" y="0" width="87" height="17" filterUnits="userSpaceOnUse" color-interpolation-filters="sRGB">
<feFlood flood-opacity="0" result="BackgroundImageFix"/>
<feColorMatrix in="SourceAlpha" type="matrix" values="0 0 0 0 0 0 0 0 0 0 0 0 0 0 0 0 0 0 127 0" result="hardAlpha"/>
<feOffset/>
<feGaussianBlur stdDeviation="3.5"/>
<feComposite in2="hardAlpha" operator="out"/>
<feColorMatrix type="matrix" values="0 0 0 0 0.937255 0 0 0 0 0.365529 0 0 0 0 0.382345 0 0 0 1 0"/>
<feBlend mode="normal" in2="BackgroundImageFix" result="effect1_dropShadow_509_55700"/>
<feBlend mode="normal" in="SourceGraphic" in2="effect1_dropShadow_509_55700" result="shape"/>
</filter>
<filter id="filter7_d_509_55700" x="876" y="343" width="87" height="17" filterUnits="userSpaceOnUse" color-interpolation-filters="sRGB">
<feFlood flood-opacity="0" result="BackgroundImageFix"/>
<feColorMatrix in="SourceAlpha" type="matrix" values="0 0 0 0 0 0 0 0 0 0 0 0 0 0 0 0 0 0 127 0" result="hardAlpha"/>
<feOffset/>
<feGaussianBlur stdDeviation="3.5"/>
<feComposite in2="hardAlpha" operator="out"/>
<feColorMatrix type="matrix" values="0 0 0 0 0.937255 0 0 0 0 0.365529 0 0 0 0 0.382345 0 0 0 1 0"/>
<feBlend mode="normal" in2="BackgroundImageFix" result="effect1_dropShadow_509_55700"/>
<feBlend mode="normal" in="SourceGraphic" in2="effect1_dropShadow_509_55700" result="shape"/>
</filter>
<filter id="filter8_d_509_55700" x="1249" y="117" width="17" height="87" filterUnits="userSpaceOnUse" color-interpolation-filters="sRGB">
<feFlood flood-opacity="0" result="BackgroundImageFix"/>
<feColorMatrix in="SourceAlpha" type="matrix" values="0 0 0 0 0 0 0 0 0 0 0 0 0 0 0 0 0 0 127 0" result="hardAlpha"/>
<feOffset/>
<feGaussianBlur stdDeviation="3.5"/>
<feComposite in2="hardAlpha" operator="out"/>
<feColorMatrix type="matrix" values="0 0 0 0 0.937255 0 0 0 0 0.365529 0 0 0 0 0.382345 0 0 0 1 0"/>
<feBlend mode="normal" in2="BackgroundImageFix" result="effect1_dropShadow_509_55700"/>
<feBlend mode="normal" in="SourceGraphic" in2="effect1_dropShadow_509_55700" result="shape"/>
</filter>
<filter id="filter9_d_509_55700" x="1228" y="167" width="17" height="87" filterUnits="userSpaceOnUse" color-interpolation-filters="sRGB">
<feFlood flood-opacity="0" result="BackgroundImageFix"/>
<feColorMatrix in="SourceAlpha" type="matrix" values="0 0 0 0 0 0 0 0 0 0 0 0 0 0 0 0 0 0 127 0" result="hardAlpha"/>
<feOffset/>
<feGaussianBlur stdDeviation="3.5"/>
<feComposite in2="hardAlpha" operator="out"/>
<feColorMatrix type="matrix" values="0 0 0 0 0.937255 0 0 0 0 0.365529 0 0 0 0 0.382345 0 0 0 1 0"/>
<feBlend mode="normal" in2="BackgroundImageFix" result="effect1_dropShadow_509_55700"/>
<feBlend mode="normal" in="SourceGraphic" in2="effect1_dropShadow_509_55700" result="shape"/>
</filter>
<filter id="filter10_d_509_55700" x="726" y="364" width="87" height="17" filterUnits="userSpaceOnUse" color-interpolation-filters="sRGB">
<feFlood flood-opacity="0" result="BackgroundImageFix"/>
<feColorMatrix in="SourceAlpha" type="matrix" values="0 0 0 0 0 0 0 0 0 0 0 0 0 0 0 0 0 0 127 0" result="hardAlpha"/>
<feOffset/>
<feGaussianBlur stdDeviation="3.5"/>
<feComposite in2="hardAlpha" operator="out"/>
<feColorMatrix type="matrix" values="0 0 0 0 0.937255 0 0 0 0 0.365529 0 0 0 0 0.382345 0 0 0 1 0"/>
<feBlend mode="normal" in2="BackgroundImageFix" result="effect1_dropShadow_509_55700"/>
<feBlend mode="normal" in="SourceGraphic" in2="effect1_dropShadow_509_55700" result="shape"/>
</filter>
<filter id="filter11_ii_509_55700" x="711" y="1" width="552" height="379" filterUnits="userSpaceOnUse" color-interpolation-filters="sRGB">
<feFlood flood-opacity="0" result="BackgroundImageFix"/>
<feBlend mode="normal" in="SourceGraphic" in2="BackgroundImageFix" result="shape"/>
<feColorMatrix in="SourceAlpha" type="matrix" values="0 0 0 0 0 0 0 0 0 0 0 0 0 0 0 0 0 0 127 0" result="hardAlpha"/>
<feOffset dx="1" dy="1"/>
<feGaussianBlur stdDeviation="0.5"/>
<feComposite in2="hardAlpha" operator="arithmetic" k2="-1" k3="1"/>
<feColorMatrix type="matrix" values="0 0 0 0 1 0 0 0 0 1 0 0 0 0 1 0 0 0 0.3 0"/>
<feBlend mode="normal" in2="shape" result="effect1_innerShadow_509_55700"/>
<feColorMatrix in="SourceAlpha" type="matrix" values="0 0 0 0 0 0 0 0 0 0 0 0 0 0 0 0 0 0 127 0" result="hardAlpha"/>
<feOffset dx="-1" dy="-1"/>
<feGaussianBlur stdDeviation="0.5"/>
<feComposite in2="hardAlpha" operator="arithmetic" k2="-1" k3="1"/>
<feColorMatrix type="matrix" values="0 0 0 0 0 0 0 0 0 0 0 0 0 0 0 0 0 0 0.3 0"/>
<feBlend mode="normal" in2="effect1_innerShadow_509_55700" result="effect2_innerShadow_509_55700"/>
</filter>
<linearGradient id="paint0_linear_509_55700" x1="24.5" y1="11" x2="279" y2="379" gradientUnits="userSpaceOnUse">
<stop stop-color="#5B9FC0"/>
<stop offset="0.21" stop-color="#8CC7E4"/>
<stop offset="0.395" stop-color="#5B9FC0"/>
<stop offset="0.575" stop-color="#8CC7E4"/>
<stop offset="1" stop-color="#5B9FC0"/>
</linearGradient>
<linearGradient id="paint1_linear_509_55700" x1="1241.5" y1="11" x2="987" y2="379" gradientUnits="userSpaceOnUse">
<stop stop-color="#5B9FC0"/>
<stop offset="0.21" stop-color="#8CC7E4"/>
<stop offset="0.395" stop-color="#5B9FC0"/>
<stop offset="0.575" stop-color="#8CC7E4"/>
<stop offset="1" stop-color="#5B9FC0"/>
</linearGradient>
</defs>
</svg>
