<svg width="42" height="42" viewBox="0 0 42 42" fill="none" xmlns="http://www.w3.org/2000/svg">
<path d="M3 0H39L42 3V39L39 42H3L0 39V3L3 0Z" fill="#386C8B"/>
<mask id="mask0_99_301606" style="mask-type:alpha" maskUnits="userSpaceOnUse" x="0" y="0" width="42" height="42">
<path d="M3 0H39L42 3V39L39 42H3L0 39V3L3 0Z" fill="#D9D9D9"/>
</mask>
<g mask="url(#mask0_99_301606)">
<g style="mix-blend-mode:overlay" opacity="0.2">
<rect width="3" height="42" fill="white"/>
</g>
<g style="mix-blend-mode:overlay" opacity="0.3">
<rect x="39" width="3" height="42" fill="#0A0A0A"/>
</g>
<g style="mix-blend-mode:overlay" opacity="0.3">
<rect x="42" width="3" height="42" transform="rotate(90 42 0)" fill="white"/>
</g>
<g style="mix-blend-mode:overlay" opacity="0.4">
<rect x="42" y="39" width="3" height="42" transform="rotate(90 42 39)" fill="#0A0A0A"/>
</g>
<circle opacity="0.5" cx="6" cy="6" r="1" fill="#191D2A"/>
<circle opacity="0.5" cx="6" cy="36" r="1" fill="#191D2A"/>
<circle opacity="0.5" cx="36" cy="6" r="1" fill="#191D2A"/>
<circle opacity="0.5" cx="36" cy="36" r="1" fill="#191D2A"/>
</g>
<mask id="mask1_99_301606" style="mask-type:alpha" maskUnits="userSpaceOnUse" x="0" y="0" width="42" height="42">
<path d="M3 0H39L42 3V39L39 42H3L0 39V3L3 0Z" fill="#D9D9D9"/>
</mask>
<g mask="url(#mask1_99_301606)">
<rect opacity="0.12" x="-50" y="35.1816" width="31.3694" height="65.6523" transform="rotate(-45 -50 35.1816)" fill="url(#paint0_linear_99_301606)"/>
</g>
<defs>
<linearGradient id="paint0_linear_99_301606" x1="-18.6306" y1="67.3885" x2="-50" y2="67.3885" gradientUnits="userSpaceOnUse">
<stop stop-color="white" stop-opacity="0"/>
<stop offset="0.44" stop-color="white"/>
<stop offset="1" stop-color="white" stop-opacity="0"/>
</linearGradient>
</defs>
</svg>
