<?xml version="1.0" standalone="no"?>
<!DOCTYPE svg PUBLIC "-//W3C//DTD SVG 20010904//EN"
  "http://www.w3.org/TR/2001/REC-SVG-20010904/DTD/svg10.dtd">
<svg width="32" height="32">
<g style="fill:black;fill-opacity:1;stroke:none;stroke-width:1;stroke-opacity:1;fill-rule:nonzero;fill:none;">
<g style="clip-path:url(#clip0_573_58971);">
<g style="fill:white;stroke:white;stroke-width:0.5;">
  <path d="M20.8051 16.5061L16.8458 20.7905C16.7218 20.9246 16.5537 21 16.3784 21C16.203 21 16.0349 20.9246 15.9109 20.7905C15.787 20.6563 15.7173 20.4744 15.7173 20.2847C15.7173 20.095 15.787 19.913 15.9109 19.7789L18.7435 16.715H10.6599C10.4849 16.715 10.317 16.6397 10.1933 16.5058C10.0695 16.3719 10 16.1903 10 16.0009C10 15.8115 10.0695 15.6299 10.1933 15.496C10.317 15.3621 10.4849 15.2868 10.6599 15.2868H18.7435L15.912 12.2211C15.7881 12.087 15.7184 11.905 15.7184 11.7153C15.7184 11.5256 15.7881 11.3437 15.912 11.2095C16.036 11.0754 16.2041 11 16.3794 11C16.5548 11 16.7229 11.0754 16.8469 11.2095L20.8062 15.4939C20.8677 15.5603 20.9165 15.6393 20.9498 15.7262C20.983 15.813 21.0001 15.9062 21 16.0002C20.9999 16.0943 20.9826 16.1874 20.9492 16.2742C20.9157 16.361 20.8668 16.4398 20.8051 16.5061Z"/>
</g>
<g style="stroke:white;stroke-width:2;">
  <rect x="1" y="1" width="30" height="30" rx="3" ry="3"/>
</g>
</g>
<defs>
<clipPath id="push">
</svg>
