<svg width="139" height="32" viewBox="0 0 139 32" fill="none" xmlns="http://www.w3.org/2000/svg">
<path d="M35.9219 10.2969C36.5365 10.2969 37.1406 10.375 37.7344 10.5312C38.3385 10.6771 38.8229 10.875 39.1875 11.125V13.9531C38.7396 13.6927 38.2969 13.4688 37.8594 13.2812C37.4219 13.0833 36.9062 12.9844 36.3125 12.9844C35.9688 12.9844 35.6719 13.0365 35.4219 13.1406C35.1719 13.2448 35.0469 13.4167 35.0469 13.6562C35.0469 13.9167 35.1979 14.1146 35.5 14.25C35.8021 14.375 36.1719 14.5208 36.6094 14.6875L37.7344 15.1094C38.4948 15.401 39.0312 15.7969 39.3438 16.2969C39.6667 16.7969 39.8281 17.2969 39.8281 17.7969C39.8281 18.4635 39.6354 19.0573 39.25 19.5781C38.8646 20.0885 38.3438 20.4948 37.6875 20.7969C37.0312 21.0885 36.2969 21.2344 35.4844 21.2344C34.8594 21.2344 34.2396 21.125 33.625 20.9062C33.0104 20.6875 32.474 20.4167 32.0156 20.0938V17.2656C32.5156 17.6406 33.0521 17.9479 33.625 18.1875C34.2083 18.4271 34.7917 18.5469 35.375 18.5469C35.7396 18.5469 36.0312 18.5052 36.25 18.4219C36.4792 18.3281 36.5938 18.1719 36.5938 17.9531C36.5938 17.7969 36.5104 17.6615 36.3438 17.5469C36.1771 17.4323 35.9531 17.3333 35.6719 17.25L34.1875 16.7812C33.6042 16.5938 33.151 16.3385 32.8281 16.0156C32.5052 15.6927 32.2812 15.3333 32.1562 14.9375C32.0312 14.5312 31.9688 14.1198 31.9688 13.7031C31.9688 12.9635 32.1562 12.3438 32.5312 11.8438C32.9062 11.3333 33.3958 10.9479 34 10.6875C34.6042 10.4271 35.2448 10.2969 35.9219 10.2969ZM46.4531 12.7969C47.0469 12.7969 47.6042 12.9479 48.125 13.25C48.6562 13.5521 49.0833 14.0156 49.4062 14.6406C49.7292 15.2656 49.8906 16.0625 49.8906 17.0312C49.8906 17.9271 49.724 18.6875 49.3906 19.3125C49.0677 19.9375 48.6302 20.4167 48.0781 20.75C47.5365 21.0729 46.9427 21.2344 46.2969 21.2344C45.8802 21.2344 45.4688 21.1458 45.0625 20.9688C44.6667 20.7812 44.3385 20.5469 44.0781 20.2656V24.75H41.3906V13.0312H44.0781V14.3594C44.276 13.9219 44.5781 13.5521 44.9844 13.25C45.3906 12.9479 45.8802 12.7969 46.4531 12.7969ZM45.6562 15.5156C45.4375 15.5156 45.2031 15.5781 44.9531 15.7031C44.7135 15.8177 44.5052 16 44.3281 16.25C44.1615 16.4896 44.0781 16.8021 44.0781 17.1875V17.9531C44.3177 18.1406 44.5781 18.2969 44.8594 18.4219C45.151 18.5469 45.4427 18.6094 45.7344 18.6094C46.1302 18.6094 46.4531 18.4531 46.7031 18.1406C46.9531 17.8177 47.0781 17.4479 47.0781 17.0312C47.0781 16.6042 46.9479 16.2448 46.6875 15.9531C46.4271 15.6615 46.0833 15.5156 45.6562 15.5156ZM54.5781 12.7969C54.9948 12.7969 55.401 12.8906 55.7969 13.0781C56.2031 13.2552 56.5365 13.4844 56.7969 13.7656V13.0312H59.4844V21H56.7969V19.6719C56.599 20.1094 56.2969 20.4792 55.8906 20.7812C55.4844 21.0833 54.9948 21.2344 54.4219 21.2344C53.8281 21.2344 53.2708 21.0833 52.75 20.7812C52.2292 20.4792 51.8021 20.0156 51.4688 19.3906C51.1458 18.7552 50.9844 17.9583 50.9844 17C50.9844 16.1042 51.1458 15.3438 51.4688 14.7188C51.8021 14.0938 52.2396 13.6198 52.7812 13.2969C53.3333 12.9635 53.9323 12.7969 54.5781 12.7969ZM55.1406 15.4219C54.7552 15.4219 54.4323 15.5781 54.1719 15.8906C53.9219 16.2031 53.7969 16.5729 53.7969 17C53.7969 17.4271 53.9271 17.7865 54.1875 18.0781C54.4479 18.3698 54.7917 18.5156 55.2188 18.5156C55.4479 18.5156 55.6823 18.4583 55.9219 18.3438C56.1615 18.2188 56.3646 18.0365 56.5312 17.7969C56.7083 17.5469 56.7969 17.2292 56.7969 16.8438V16.0781C56.5677 15.8906 56.3073 15.7344 56.0156 15.6094C55.7344 15.4844 55.4427 15.4219 55.1406 15.4219ZM65.3281 12.7969C65.9427 12.7969 66.4115 12.8958 66.7344 13.0938C67.0677 13.2812 67.3698 13.4792 67.6406 13.6875V16.0312C67.401 15.8542 67.125 15.7135 66.8125 15.6094C66.5104 15.5052 66.1354 15.4531 65.6875 15.4531C65.4479 15.4531 65.1979 15.5156 64.9375 15.6406C64.6771 15.7656 64.4583 15.9479 64.2812 16.1875C64.1042 16.4167 64.0156 16.7083 64.0156 17.0625C64.0156 17.5833 64.1823 17.9792 64.5156 18.25C64.849 18.5208 65.2396 18.6562 65.6875 18.6562C66.1354 18.6562 66.5104 18.6042 66.8125 18.5C67.125 18.3854 67.401 18.2448 67.6406 18.0781V20.4219C67.3698 20.6302 67.0677 20.8177 66.7344 20.9844C66.4115 21.151 65.9427 21.2344 65.3281 21.2344C64.7344 21.2344 64.1823 21.125 63.6719 20.9062C63.1615 20.6771 62.7135 20.3698 62.3281 19.9844C61.9531 19.5885 61.6562 19.1406 61.4375 18.6406C61.2292 18.1406 61.125 17.6146 61.125 17.0625C61.125 16.5104 61.2292 15.9792 61.4375 15.4688C61.6562 14.9583 61.9531 14.5052 62.3281 14.1094C62.7135 13.7031 63.1615 13.3854 63.6719 13.1562C64.1823 12.9167 64.7344 12.7969 65.3281 12.7969ZM72.7344 12.7969C73.4844 12.7969 74.151 12.9635 74.7344 13.2969C75.3177 13.6302 75.7708 14.099 76.0938 14.7031C76.4271 15.2969 76.5938 16.0052 76.5938 16.8281V17.75H71.1719C71.2865 18.1354 71.5156 18.4219 71.8594 18.6094C72.2031 18.7969 72.599 18.8906 73.0469 18.8906C73.651 18.8906 74.1719 18.8073 74.6094 18.6406C75.0573 18.4635 75.3906 18.3125 75.6094 18.1875V20.4844C75.3385 20.651 74.9635 20.8177 74.4844 20.9844C74.0156 21.151 73.4844 21.2344 72.8906 21.2344C72.3281 21.2344 71.7812 21.1406 71.25 20.9531C70.7292 20.7656 70.2604 20.4948 69.8438 20.1406C69.4271 19.7865 69.099 19.3594 68.8594 18.8594C68.6198 18.349 68.5 17.776 68.5 17.1406C68.5 16.349 68.6823 15.625 69.0469 14.9688C69.4219 14.3125 69.9271 13.7865 70.5625 13.3906C71.2083 12.9948 71.9323 12.7969 72.7344 12.7969ZM72.6562 15.0156C72.3125 15.0156 72.0156 15.1094 71.7656 15.2969C71.5156 15.474 71.3333 15.75 71.2188 16.125H74.0469C74.0469 15.75 73.901 15.474 73.6094 15.2969C73.3281 15.1094 73.0104 15.0156 72.6562 15.0156ZM87.2812 10.2812C88.1458 10.2812 88.8958 10.4115 89.5312 10.6719C90.1771 10.9219 90.6771 11.276 91.0312 11.7344C91.3958 12.1927 91.5781 12.724 91.5781 13.3281C91.5781 13.8594 91.4479 14.3177 91.1875 14.7031C90.9375 15.0885 90.6094 15.3958 90.2031 15.625C90.526 15.7396 90.8281 15.8906 91.1094 16.0781C91.3906 16.2552 91.6146 16.4896 91.7812 16.7812C91.9583 17.0729 92.0469 17.4531 92.0469 17.9219C92.0469 18.5052 91.8594 19.0521 91.4844 19.5625C91.1094 20.0625 90.5938 20.4688 89.9375 20.7812C89.2812 21.0833 88.5312 21.2344 87.6875 21.2344C87.2083 21.2344 86.6719 21.2083 86.0781 21.1562C85.4844 21.1146 84.9167 21.0573 84.375 20.9844C83.8438 20.9115 83.4115 20.8385 83.0781 20.7656V10.6875C83.7135 10.5625 84.3854 10.4635 85.0938 10.3906C85.8021 10.3177 86.5312 10.2812 87.2812 10.2812ZM87.3906 12.9219C86.8594 12.9219 86.3958 12.9635 86 13.0469V14.8438H87.4688C87.8125 14.8438 88.1042 14.7604 88.3438 14.5938C88.5833 14.4271 88.7031 14.1823 88.7031 13.8594C88.7031 13.5781 88.5781 13.3542 88.3281 13.1875C88.0885 13.0104 87.776 12.9219 87.3906 12.9219ZM86 18.4688C86.2188 18.5417 86.4792 18.5938 86.7812 18.625C87.0833 18.6458 87.3177 18.6562 87.4844 18.6562C87.9115 18.6562 88.2552 18.5729 88.5156 18.4062C88.7865 18.2396 88.9219 17.9948 88.9219 17.6719C88.9219 17.3594 88.7708 17.1354 88.4688 17C88.1667 16.8646 87.8021 16.7969 87.375 16.7969H86V18.4688ZM96.8125 12.7969C97.2292 12.7969 97.6354 12.8906 98.0312 13.0781C98.4375 13.2552 98.7708 13.4844 99.0312 13.7656V13.0312H101.719V21H99.0312V19.6719C98.8333 20.1094 98.5312 20.4792 98.125 20.7812C97.7188 21.0833 97.2292 21.2344 96.6562 21.2344C96.0625 21.2344 95.5052 21.0833 94.9844 20.7812C94.4635 20.4792 94.0365 20.0156 93.7031 19.3906C93.3802 18.7552 93.2188 17.9583 93.2188 17C93.2188 16.1042 93.3802 15.3438 93.7031 14.7188C94.0365 14.0938 94.474 13.6198 95.0156 13.2969C95.5677 12.9635 96.1667 12.7969 96.8125 12.7969ZM97.375 15.4219C96.9896 15.4219 96.6667 15.5781 96.4062 15.8906C96.1562 16.2031 96.0312 16.5729 96.0312 17C96.0312 17.4271 96.1615 17.7865 96.4219 18.0781C96.6823 18.3698 97.026 18.5156 97.4531 18.5156C97.6823 18.5156 97.9167 18.4583 98.1562 18.3438C98.3958 18.2188 98.599 18.0365 98.7656 17.7969C98.9427 17.5469 99.0312 17.2292 99.0312 16.8438V16.0781C98.8021 15.8906 98.5417 15.7344 98.25 15.6094C97.9688 15.4844 97.6771 15.4219 97.375 15.4219ZM109.344 15.9844C109.188 15.901 109.021 15.8385 108.844 15.7969C108.677 15.7448 108.479 15.7188 108.25 15.7188C107.885 15.7188 107.562 15.8281 107.281 16.0469C107 16.2656 106.771 16.5521 106.594 16.9062V21H103.906V13.0312H106.594V14.4531C106.844 14.026 107.12 13.6562 107.422 13.3438C107.734 13.0312 108.141 12.875 108.641 12.875C108.911 12.875 109.146 12.9219 109.344 13.0156V15.9844Z" fill="white"/>
<rect x="1" y="1" width="137" height="30" rx="3" stroke="white" stroke-width="2"/>
</svg>
